HIERARCHY
ROOT Hips
{
	OFFSET -3.958830 18.904000 13.208200
	CHANNELS 6 Xposition Yposition Zposition Zrotation Yrotation Xrotation 
	JOINT LHipJoint
	{
		OFFSET 0.000000 0.000000 0.000000
		CHANNELS 3 Zrotation Yrotation Xrotation
		JOINT LeftUpLeg
		{
			OFFSET 1.800000 -1.400000 0.085000
			CHANNELS 3 Zrotation Yrotation Xrotation
			JOINT LeftLeg
			{
				OFFSET 2.215000 -6.000000 0.000000
				CHANNELS 3 Zrotation Yrotation Xrotation
				JOINT LeftFoot
				{
					OFFSET 2.500000 -6.900000 0.000000
					CHANNELS 3 Zrotation Yrotation Xrotation
					JOINT LeftToeBase
					{
						OFFSET 0.200000 -0.500000 1.950000
						CHANNELS 3 Zrotation Yrotation Xrotation
						End Site
						{
							OFFSET 0.000000 0.000000 0.000000
						}
					}
				}
			}
		}
	}
	JOINT RHipJoint
	{
		OFFSET 0.000000 0.000000 0.000000
		CHANNELS 3 Zrotation Yrotation Xrotation
		JOINT RightUpLeg
		{
			OFFSET -1.800000 -1.400000 0.085000
			CHANNELS 3 Zrotation Yrotation Xrotation
			JOINT RightLeg
			{
				OFFSET -2.215000 -6.000000 0.000000
				CHANNELS 3 Zrotation Yrotation Xrotation
				JOINT RightFoot
				{
					OFFSET -2.500000 -6.900000 0.000000
					CHANNELS 3 Zrotation Yrotation Xrotation
					JOINT RightToeBase
					{
						OFFSET -0.200000 -0.500000 1.950000
						CHANNELS 3 Zrotation Yrotation Xrotation
						End Site
						{
							OFFSET 0.000000 0.000000 0.000000
						}
					}
				}
			}
		}
	}
	JOINT LowerBack
	{
		OFFSET 0.000000 0.000000 0.000000
		CHANNELS 3 Zrotation Yrotation Xrotation
		JOINT Spine
		{
			OFFSET -0.087000 1.940000 -0.288900
			CHANNELS 3 Zrotation Yrotation Xrotation
			JOINT Spine1
			{
				OFFSET 0.000000 1.950000 0.060000
				CHANNELS 3 Zrotation Yrotation Xrotation
				JOINT Neck
				{
					OFFSET 0.000000 0.000000 0.000000
					CHANNELS 3 Zrotation Yrotation Xrotation
					JOINT Neck1
					{
						OFFSET 0.000000 1.600000 0.340000
						CHANNELS 3 Zrotation Yrotation Xrotation
						JOINT Head
						{
							OFFSET 0.000000 1.667000 -0.240000
							CHANNELS 3 Zrotation Yrotation Xrotation
							End Site
							{
								OFFSET 0.000000 0.000000 0.000000
							}
						}
					}
				}
				JOINT LeftShoulder
				{
					OFFSET 0.000000 0.000000 0.000000
					CHANNELS 3 Zrotation Yrotation Xrotation
					JOINT LeftArm
					{
						OFFSET 2.700000 1.550000 -0.730000
						CHANNELS 3 Zrotation Yrotation Xrotation
						JOINT LeftForeArm
						{
							OFFSET 5.450000 0.000000 0.000000
							CHANNELS 3 Zrotation Yrotation Xrotation
							JOINT LeftHand
							{
								OFFSET 3.450000 0.000000 0.000000
								CHANNELS 3 Zrotation Yrotation Xrotation
								JOINT LeftHandIndex1
								{
									OFFSET 0.750000 0.000000 0.000000
									CHANNELS 3 Zrotation Yrotation Xrotation
									End Site
									{
										OFFSET 0.000000 0.000000 0.000000
									}
								}
							}
						}
					}
				}
				JOINT RightShoulder
				{
					OFFSET 0.000000 0.000000 0.000000
					CHANNELS 3 Zrotation Yrotation Xrotation
					JOINT RightArm
					{
						OFFSET -2.700000 1.550000 -0.730000
						CHANNELS 3 Zrotation Yrotation Xrotation
						JOINT RightForeArm
						{
							OFFSET -5.450000 0.000000 0.000000
							CHANNELS 3 Zrotation Yrotation Xrotation
							JOINT RightHand
							{
								OFFSET -3.450000 0.000000 0.000000
								CHANNELS 3 Zrotation Yrotation Xrotation
								JOINT RightHandIndex1
								{
									OFFSET -0.750000 0.000000 0.000000
									CHANNELS 3 Zrotation Yrotation Xrotation
									End Site
									{
										OFFSET 0.000000 0.000000 0.000000
									}
								}
							}
						}
					}
				}
			}
		}
	}
}
MOTION
Frames: 6
Frame Time: 0.016667
-17.983400 16.778930 4.306100 -5.911237 28.764961 -4.295590 -15.149997 12.527898 3.969813 13.212717 -0.565358 -27.796361 -3.157320 2.439589 -5.316508 -0.651988 2.836864 3.155494 0.776310 0.455480 0.618960 18.333044 -9.910821 3.475725 4.505749 -4.081762 5.625922 10.318146 -4.336177 -2.329088 -0.801277 -4.295150 2.552432 0.310140 -0.341700 0.068420 -4.300468 -2.413204 -8.671862 27.591592 0.491636 17.455913 -11.281084 9.092329 -17.371001 -0.104858 -8.362668 -10.742507 -17.819407 14.319325 40.888560 13.892040 4.151560 -11.505590 -2.953984 3.639472 0.485747 -0.686958 0.936451 0.941042 10.981235 -10.986413 -0.277121 -3.299330 3.525696 0.671860 -0.484620 0.172190 0.043970 2.239889 7.879501 6.291247 -2.572763 12.915282 -0.458851 -8.401359 -2.755793 -0.318568 3.046664 -1.319859 -0.073380 -0.184660 -0.180410 -0.230770 
-17.970370 16.778190 4.311020 -5.903796 29.155439 -4.252535 -15.177888 12.593931 3.991296 12.993012 -0.625919 -27.917705 -3.043723 2.426965 -5.365791 -0.657846 2.824695 3.158378 0.738450 0.406970 0.603080 18.296522 -9.868009 3.491519 4.546103 -4.127610 5.709093 10.246219 -4.306750 -2.592956 -0.782882 -4.285573 2.556708 0.281510 -0.337700 0.057450 -4.217302 -2.602819 -8.715460 27.163273 0.603002 17.453100 -10.865722 9.244507 -17.806435 0.092217 -8.165526 -11.075959 -17.609466 14.067077 41.462598 13.540450 4.038050 -10.770750 -2.834071 3.380875 0.564338 -0.353093 1.186617 0.943390 10.479867 -11.199010 -0.236794 -3.305738 3.518551 0.671170 -0.481940 0.153580 0.025670 1.911721 8.122010 6.641242 -2.291145 12.182441 -0.518680 -8.730710 -2.712263 -0.273741 3.053352 -1.306891 -0.087420 -0.190570 -0.156060 -0.239630 
-17.953620 16.777340 4.311340 -5.985282 29.684748 -4.133336 -15.173852 12.560767 3.997283 12.741963 -0.750303 -27.969736 -2.979965 2.360999 -5.641055 -0.641627 2.756661 3.194696 0.796810 0.471170 0.650960 18.303534 -9.878726 3.489790 4.484999 -4.093943 5.581552 10.498381 -4.277857 -2.635549 -0.788944 -4.289863 2.564576 0.306960 -0.357270 0.039980 -4.251745 -2.536007 -8.717583 27.295303 0.692632 17.122143 -10.925059 9.215868 -17.865406 -0.036428 -8.012946 -10.827013 -17.162782 13.577900 41.021870 13.744690 3.670570 -10.907390 -2.362662 3.707768 0.298588 -0.632259 -0.315321 0.935960 10.212469 -10.827317 -0.221993 -3.270791 3.541875 0.657450 -0.494990 0.153340 0.041530 1.608963 7.650760 6.545061 -1.776207 12.130620 -0.424022 -9.220033 -2.723019 -0.309674 3.070156 -1.353438 -0.067790 -0.200550 -0.211330 -0.232970 
-17.934350 16.769730 4.318790 -5.869854 29.850143 -3.760811 -15.172566 12.545168 4.012142 12.367354 -0.892188 -27.862708 -2.528503 2.249891 -6.346214 -0.651480 2.758851 3.218481 0.742270 0.428950 0.589930 18.302999 -9.889618 3.482383 4.265383 -4.009543 5.419659 10.625416 -4.274550 -2.614082 -0.751892 -4.314470 2.571900 0.302340 -0.303850 0.022730 -4.260235 -2.507174 -8.730652 27.335335 0.919048 16.637744 -10.997103 9.249649 -17.965164 -0.088684 -7.811124 -10.876664 -16.563825 13.312640 40.679369 13.410500 3.461370 -9.638210 -1.478408 3.772711 0.278760 -1.288528 -1.313523 0.991054 9.908613 -10.794360 -0.211788 -3.323638 3.519632 0.624360 -0.455660 0.108150 0.042670 0.827909 7.509839 6.646186 -0.725739 12.264986 -0.301573 -9.574410 -2.923767 -0.299239 3.066139 -1.354573 -0.099540 -0.175250 -0.177360 -0.221680 
-17.913920 16.756300 4.320700 -5.849775 30.213046 -3.461985 -15.142490 12.400396 4.018301 12.218615 -0.996115 -27.665787 -2.813812 2.162122 -7.099883 -0.643554 2.796391 3.220100 0.775430 0.453780 0.622510 18.351089 -9.914774 3.478748 4.008865 -3.898791 5.379358 11.182318 -4.259400 -2.989898 -0.766649 -4.375021 2.553663 0.321090 -0.301720 0.046240 -4.379825 -2.242501 -8.731985 27.590854 1.126094 15.674772 -11.169834 9.051635 -17.146206 -0.083223 -7.481384 -10.299629 -15.579838 12.532449 40.026547 12.827150 3.261640 -9.806790 -2.121572 3.764130 -0.209212 0.312923 -2.803103 0.907690 8.467531 -7.487573 -0.354909 -3.383190 3.478483 0.606800 -0.435520 0.106610 0.050630 1.151273 7.068248 6.386587 -1.165348 12.425338 -0.193598 -9.056616 -3.007935 -0.366818 3.049032 -1.391161 -0.084190 -0.184950 -0.197680 -0.224240 
-17.903020 16.743600 4.316390 -5.687476 30.495899 -3.482889 -15.127383 12.332308 4.001857 11.975961 -1.066847 -27.255376 -2.984550 2.107520 -7.587847 -0.640771 2.822028 3.231155 0.772760 0.447270 0.628350 18.375895 -9.927236 3.486709 3.781575 -3.885773 5.670201 11.248447 -4.226987 -3.406700 -0.776738 -4.430634 2.541614 0.324470 -0.293400 0.047590 -4.444411 -2.113385 -8.732827 27.595877 1.232967 15.233682 -11.158478 8.897199 -16.145364 0.053172 -7.321854 -10.246611 -15.316367 11.985586 40.189416 12.213190 3.011370 -9.542330 -2.627379 3.320427 -0.308129 1.246954 -3.588158 0.813251 7.826858 -5.154979 -0.478946 -3.432606 3.416955 0.600180 -0.420360 0.100330 0.052800 1.297816 7.239172 6.493117 -1.758290 12.056811 -0.207172 -8.494931 -3.217798 -0.395767 3.042720 -1.395476 -0.091510 -0.178850 -0.202990 -0.228120 
